<svg width="119" height="24" viewBox="0 0 119 24" fill="none" xmlns="http://www.w3.org/2000/svg">
<line x1="5.54318" y1="11.8315" x2="109.095" y2="11.8316" stroke="#CCCCCC" stroke-dasharray="3 3"/>
<path d="M58.1234 21.75H56.758C56.6208 21.75 56.4858 21.7185 56.3653 21.6585C56.2449 21.5984 56.1428 21.5118 56.0685 21.4064C55.9941 21.301 55.9499 21.1803 55.9398 21.0552C55.9297 20.9302 55.954 20.8048 56.0106 20.6906L59.317 14.0227L54.3523 13.9219L52.5416 15.9267C52.1964 16.3233 51.921 16.5 51.2183 16.5H50.2991C50.1536 16.5043 50.009 16.4764 49.8778 16.4188C49.7465 16.3612 49.6324 16.2755 49.5451 16.1691C49.423 16.0186 49.303 15.7636 49.4199 15.3998L50.4366 12.0717C50.4442 12.0469 50.4535 12.022 50.4637 11.9977C50.4642 11.9953 50.4642 11.9929 50.4637 11.9906C50.4531 11.9663 50.4441 11.9414 50.4366 11.9161L49.4189 8.56687C49.3086 8.21016 49.4291 7.96078 49.5502 7.81406C49.6315 7.71549 49.7369 7.63573 49.8581 7.58118C49.9793 7.52664 50.1127 7.49883 50.2478 7.5H51.2183C51.743 7.5 52.2523 7.71516 52.5519 8.0625L54.3251 10.0336L59.317 9.96609L56.0117 3.30984C55.955 3.19568 55.9305 3.07036 55.9405 2.94533C55.9505 2.8203 55.9947 2.69956 56.0689 2.59414C56.1431 2.48872 56.2451 2.40198 56.3655 2.34186C56.4859 2.28175 56.6208 2.25016 56.758 2.25H58.1383C58.3309 2.25354 58.5201 2.29667 58.6919 2.3762C58.8637 2.45572 59.0138 2.5696 59.1308 2.70937L65.5451 9.83438L68.5083 9.76312C68.7253 9.75234 69.3265 9.74859 69.4655 9.74859C72.3 9.75 73.9927 10.5909 73.9927 12C73.9927 12.4434 73.7988 13.2656 72.5016 13.7887C71.7357 14.0981 70.714 14.2547 69.4645 14.2547C69.327 14.2547 68.7274 14.2509 68.5073 14.2402L65.5446 14.168L59.1144 21.293C58.9973 21.4321 58.8474 21.5454 58.6758 21.6246C58.5043 21.7037 58.3155 21.7465 58.1234 21.75Z" fill="#1262AE"/>
<circle cx="5.80197" cy="12.3315" r="4" fill="white" stroke="#1262AE" stroke-width="2"/>
<circle cx="113.153" cy="11.9146" r="4" fill="white" stroke="#1262AE" stroke-width="2"/>
</svg>
