<svg width="27" height="24" viewBox="0 0 27 24" fill="none" xmlns="http://www.w3.org/2000/svg">
<path d="M23.7498 0.0537109H2.8625C1.42258 0.0537109 0.251587 1.21378 0.251587 2.64027V20.7462C0.251587 22.1727 1.42258 23.3327 2.8625 23.3327H23.7498C25.1897 23.3327 26.3607 22.1727 26.3607 20.7462V2.64027C26.3607 1.21378 25.1897 0.0537109 23.7498 0.0537109ZM23.7511 7.81339C23.7498 7.81339 23.7498 7.81339 23.7511 7.81339H23.1441L19.6624 2.64027H23.7498L23.7511 7.81339ZM17.8752 15.5731L10.6952 19.4529V11.6932L17.8752 15.5731ZM16.6168 7.81339L13.1351 2.64027H16.5241L20.0058 7.81339H16.6168ZM13.4785 7.81339H10.0895L6.60785 2.64027H9.99682L13.4785 7.81339ZM2.8625 2.64027H3.46954L6.95119 7.81339H2.8625V2.64027Z" fill="white"/>
</svg>
