<svg width="30" height="27" viewBox="0 0 30 27" fill="none" xmlns="http://www.w3.org/2000/svg">
<path d="M25.7503 4.76458C25.4351 3.90417 24.5526 3.29167 23.5125 3.29167H19.5727V1.83333C19.5727 1.03125 18.8635 0.375 17.9967 0.375H11.693C10.8263 0.375 10.1171 1.03125 10.1171 1.83333V3.29167H6.1773C5.13719 3.29167 4.27043 3.90417 3.93949 4.76458L0.834912 13.0333C0.724597 13.3396 0.66156 13.6604 0.66156 13.9958V24.4375C0.66156 25.6479 1.71743 26.625 3.02545 26.625C4.33347 26.625 5.38934 25.6479 5.38934 24.4375V23.7083H24.3004V24.4375C24.3004 25.6333 25.3563 26.625 26.6643 26.625C27.9566 26.625 29.0282 25.6479 29.0282 24.4375V13.9958C29.0282 13.675 28.9652 13.3396 28.8549 13.0333L25.7503 4.76458ZM6.1773 19.3333C4.86928 19.3333 3.81341 18.3563 3.81341 17.1458C3.81341 15.9354 4.86928 14.9583 6.1773 14.9583C7.48532 14.9583 8.54119 15.9354 8.54119 17.1458C8.54119 18.3563 7.48532 19.3333 6.1773 19.3333ZM23.5125 19.3333C22.2045 19.3333 21.1486 18.3563 21.1486 17.1458C21.1486 15.9354 22.2045 14.9583 23.5125 14.9583C24.8205 14.9583 25.8764 15.9354 25.8764 17.1458C25.8764 18.3563 24.8205 19.3333 23.5125 19.3333ZM3.81341 12.0417L6.1773 5.47917H23.5125L25.8764 12.0417H3.81341Z" fill="white"/>
</svg>
