<svg width="28" height="32" viewBox="0 0 28 32" fill="none" xmlns="http://www.w3.org/2000/svg">
<path d="M0.618248 23.6668C0.618248 25.1335 1.27437 26.4502 2.30061 27.3668V29.5002C2.30061 30.8835 3.4278 32.0002 4.82416 32.0002C6.22052 32.0002 7.34771 30.8835 7.34771 29.5002V28.6668H20.8066V29.5002C20.8066 30.8668 21.9338 32.0002 23.3302 32.0002C24.7097 32.0002 25.8537 30.8835 25.8537 29.5002V27.3668C26.88 26.4502 27.5361 25.1335 27.5361 23.6668V7.00016C27.5361 1.16683 21.5132 0.333496 14.0772 0.333496C6.64112 0.333496 0.618248 1.16683 0.618248 7.00016V23.6668ZM6.50653 25.3335C5.11016 25.3335 3.98298 24.2168 3.98298 22.8335C3.98298 21.4502 5.11016 20.3335 6.50653 20.3335C7.90289 20.3335 9.03008 21.4502 9.03008 22.8335C9.03008 24.2168 7.90289 25.3335 6.50653 25.3335ZM21.6478 25.3335C20.2515 25.3335 19.1243 24.2168 19.1243 22.8335C19.1243 21.4502 20.2515 20.3335 21.6478 20.3335C23.0442 20.3335 24.1714 21.4502 24.1714 22.8335C24.1714 24.2168 23.0442 25.3335 21.6478 25.3335ZM24.1714 15.3335H3.98298V7.00016H24.1714V15.3335Z" fill="white"/>
</svg>
