<svg width="17" height="18" viewBox="0 0 17 18" fill="none" xmlns="http://www.w3.org/2000/svg">
<path d="M16.1058 6.43973L11.1163 5.65551L8.88589 0.765268C8.82497 0.631376 8.72475 0.522988 8.60095 0.457105C8.29046 0.291334 7.91315 0.429476 7.75791 0.765268L5.52748 5.65551L0.538022 6.43973C0.400463 6.46098 0.274694 6.53112 0.178403 6.63738C0.0619921 6.76678 -0.00215557 6.94087 5.53104e-05 7.12139C0.00226619 7.30191 0.0706548 7.4741 0.190194 7.60012L3.80014 11.4065L2.94727 16.7813C2.92727 16.9063 2.94006 17.0349 2.9842 17.1525C3.02833 17.27 3.10205 17.3719 3.19698 17.4464C3.29191 17.521 3.40426 17.5653 3.52128 17.5743C3.63831 17.5834 3.75534 17.5567 3.85909 17.4975L8.3219 14.9599L12.7847 17.4975C12.9065 17.5676 13.048 17.591 13.1836 17.5655C13.5256 17.5017 13.7555 17.1511 13.6965 16.7813L12.8437 11.4065L16.4536 7.60012C16.5519 7.49599 16.6167 7.35997 16.6364 7.2112C16.6894 6.83928 16.4497 6.49499 16.1058 6.43973Z" fill="#FDBF00"/>
</svg>
