<svg width="17" height="18" viewBox="0 0 17 18" fill="none" xmlns="http://www.w3.org/2000/svg">
<path d="M16.1364 6.43973L11.1374 5.65551L8.90265 0.765268C8.84161 0.631376 8.7412 0.522988 8.61716 0.457105C8.30607 0.291334 7.92804 0.429476 7.77249 0.765268L5.53778 5.65551L0.538707 6.43973C0.400883 6.46098 0.274872 6.53112 0.178396 6.63738C0.0617606 6.76678 -0.00251067 6.94087 -0.000295535 7.12139C0.0019196 7.30191 0.0704399 7.4741 0.190209 7.60012L3.8071 11.4065L2.95259 16.7813C2.93256 16.9063 2.94537 17.0349 2.98959 17.1525C3.03382 17.27 3.10767 17.3719 3.20278 17.4464C3.29789 17.521 3.41046 17.5653 3.52771 17.5743C3.64497 17.5834 3.76222 17.5567 3.86617 17.4975L8.33757 14.9599L12.809 17.4975C12.931 17.5676 13.0728 17.591 13.2087 17.5655C13.5513 17.5017 13.7816 17.1511 13.7226 16.7813L12.868 11.4065L16.4849 7.60012C16.5834 7.49599 16.6484 7.35997 16.668 7.2112C16.7212 6.83928 16.481 6.49499 16.1364 6.43973Z" fill="#FDBF00"/>
</svg>
