<svg width="17" height="18" viewBox="0 0 17 18" fill="none" xmlns="http://www.w3.org/2000/svg">
<path d="M16.1059 6.43973L11.1164 5.65551L8.88597 0.765268C8.82506 0.631376 8.72483 0.522988 8.60103 0.457105C8.29054 0.291334 7.91323 0.429476 7.75799 0.765268L5.52756 5.65551L0.538084 6.43973C0.400525 6.46098 0.274756 6.53112 0.178465 6.63738C0.0620533 6.76678 -0.00209454 6.94087 0.000116346 7.12139C0.00232723 7.30191 0.070716 7.4741 0.190255 7.60012L3.80021 11.4065L2.94734 16.7813C2.92734 16.9063 2.94013 17.0349 2.98427 17.1525C3.0284 17.27 3.10212 17.3719 3.19705 17.4464C3.29198 17.521 3.40433 17.5653 3.52135 17.5743C3.63838 17.5834 3.75541 17.5567 3.85916 17.4975L8.32198 14.9599L12.7848 17.4975C12.9066 17.5676 13.0481 17.591 13.1837 17.5655C13.5257 17.5017 13.7556 17.1511 13.6966 16.7813L12.8438 11.4065L16.4537 7.60012C16.552 7.49599 16.6168 7.35997 16.6365 7.2112C16.6895 6.83928 16.4498 6.49499 16.1059 6.43973Z" fill="#FDBF00"/>
</svg>
