<svg width="17" height="18" viewBox="0 0 17 18" fill="none" xmlns="http://www.w3.org/2000/svg">
<path d="M16.1059 6.43973L11.1164 5.65551L8.886 0.765268C8.82508 0.631376 8.72486 0.522988 8.60106 0.457105C8.29057 0.291334 7.91326 0.429476 7.75802 0.765268L5.52759 5.65551L0.538115 6.43973C0.400555 6.46098 0.274787 6.53112 0.178495 6.63738C0.0620838 6.76678 -0.00206402 6.94087 0.000146863 7.12139C0.00235775 7.30191 0.0707465 7.4741 0.190286 7.60012L3.80024 11.4065L2.94737 16.7813C2.92737 16.9063 2.94016 17.0349 2.9843 17.1525C3.02843 17.27 3.10215 17.3719 3.19708 17.4464C3.29201 17.521 3.40435 17.5653 3.52138 17.5743C3.63841 17.5834 3.75544 17.5567 3.85919 17.4975L8.32201 14.9599L12.7848 17.4975C12.9067 17.5676 13.0482 17.591 13.1838 17.5655C13.5257 17.5017 13.7556 17.1511 13.6967 16.7813L12.8438 11.4065L16.4537 7.60012C16.552 7.49599 16.6168 7.35997 16.6365 7.2112C16.6896 6.83928 16.4498 6.49499 16.1059 6.43973Z" fill="#FDBF00"/>
</svg>
