<svg width="25" height="26" viewBox="0 0 25 26" fill="none" xmlns="http://www.w3.org/2000/svg">
<path d="M12.5 23.1904C9.76736 23.1904 7.14664 22.1049 5.21437 20.1726C3.2821 18.2404 2.19656 15.6196 2.19656 12.887C2.19656 10.1543 3.2821 7.53363 5.21437 5.60136C7.14664 3.66909 9.76736 2.58355 12.5 2.58355C15.2326 2.58355 17.8534 3.66909 19.7856 5.60136C21.7179 7.53363 22.8034 10.1543 22.8034 12.887C22.8034 15.6196 21.7179 18.2404 19.7856 20.1726C17.8534 22.1049 15.2326 23.1904 12.5 23.1904ZM12.5 24.6623C15.623 24.6623 18.6181 23.4217 20.8264 21.2134C23.0347 19.0051 24.2754 16.01 24.2754 12.887C24.2754 9.76397 23.0347 6.76886 20.8264 4.56056C18.6181 2.35225 15.623 1.11163 12.5 1.11163C9.37698 1.11163 6.38187 2.35225 4.17356 4.56056C1.96525 6.76886 0.72464 9.76397 0.72464 12.887C0.72464 16.01 1.96525 19.0051 4.17356 21.2134C6.38187 23.4217 9.37698 24.6623 12.5 24.6623Z" fill="#1262AF"/>
<path d="M9.87143 7.88685C10.0103 7.81535 10.1662 7.78354 10.3219 7.79492C10.4777 7.8063 10.6273 7.86044 10.7543 7.95137L16.6967 12.1959C16.8067 12.2744 16.8964 12.3781 16.9583 12.4983C17.0202 12.6185 17.0525 12.7517 17.0525 12.8869C17.0525 13.0221 17.0202 13.1554 16.9583 13.2755C16.8964 13.3957 16.8067 13.4994 16.6967 13.5779L10.7543 17.8225C10.6274 17.9133 10.4778 17.9674 10.3221 17.9788C10.1664 17.9902 10.0106 17.9584 9.87183 17.887C9.73302 17.8156 9.6166 17.7073 9.53535 17.574C9.45411 17.4407 9.41119 17.2876 9.41132 17.1315V8.64238C9.41115 8.48632 9.45401 8.33324 9.53518 8.19995C9.61635 8.06666 9.7327 7.95832 9.87143 7.88685Z" fill="#1262AF"/>
</svg>
